<?xml version="1.0" encoding="UTF-8" standalone="no"?><svg width="101" height="100" viewBox="0 0 101 100" fill="none" xmlns="http://www.w3.org/2000/svg">
<g clip-path="url(#clip0_534_1572)">
<path d="M85.1542 18.7167C78.7792 15.8417 71.9459 13.7167 64.8 12.5084C64.7364 12.4962 64.6705 12.504 64.6116 12.5309C64.5526 12.5578 64.5034 12.6023 64.4709 12.6584C63.5959 14.1959 62.6209 16.2001 61.9375 17.7834C54.3588 16.651 46.6538 16.651 39.075 17.7834C38.3139 16.0286 37.4557 14.3177 36.5042 12.6584C36.472 12.6016 36.4232 12.5561 36.3644 12.5278C36.3055 12.4995 36.2395 12.4898 36.175 12.5001C29.0334 13.7084 22.2 15.8334 15.8209 18.7126C15.766 18.7356 15.7195 18.7748 15.6875 18.8251C2.72088 37.8876 -0.833284 56.4792 0.912549 74.8376C0.917408 74.8825 0.931364 74.926 0.95357 74.9654C0.975776 75.0048 1.00577 75.0393 1.04172 75.0667C8.61002 80.5768 17.0515 84.7743 26.0125 87.4834C26.075 87.5026 26.1418 87.5026 26.2043 87.4832C26.2667 87.4639 26.3219 87.4262 26.3625 87.375C28.2909 84.7962 29.9996 82.0602 31.4709 79.1959C31.4913 79.1567 31.5031 79.1136 31.5054 79.0695C31.5077 79.0254 31.5005 78.9813 31.4843 78.9402C31.4681 78.8992 31.4433 78.862 31.4115 78.8314C31.3797 78.8007 31.3417 78.7772 31.3 78.7625C28.6084 77.7489 26.0004 76.5257 23.5 75.1042C23.4551 75.0786 23.4173 75.0422 23.3899 74.9983C23.3625 74.9544 23.3464 74.9044 23.3431 74.8528C23.3398 74.8012 23.3494 74.7495 23.3709 74.7025C23.3925 74.6555 23.4254 74.6145 23.4667 74.5834C23.9917 74.1959 24.5167 73.7917 25.0167 73.3876C25.0617 73.3512 25.1159 73.3281 25.1733 73.3207C25.2307 73.3134 25.289 73.3221 25.3417 73.3459C41.7042 80.6959 59.4251 80.6959 75.5959 73.3459C75.6487 73.3207 75.7076 73.3108 75.7658 73.3174C75.824 73.3241 75.8792 73.3469 75.925 73.3834C76.425 73.7917 76.9459 74.1959 77.4751 74.5834C77.5167 74.6139 77.5502 74.6543 77.5725 74.7009C77.5947 74.7475 77.6051 74.7989 77.6026 74.8505C77.6001 74.9021 77.5849 74.9523 77.5583 74.9966C77.5316 75.0408 77.4945 75.0778 77.45 75.1042C74.9584 76.5375 72.3667 77.7501 69.6459 78.7584C69.6041 78.7736 69.566 78.7975 69.5342 78.8285C69.5024 78.8596 69.4776 78.8971 69.4614 78.9385C69.4453 78.9799 69.4381 79.0242 69.4405 79.0686C69.4428 79.113 69.4546 79.1564 69.4751 79.1959C70.9751 82.0584 72.6917 84.7834 74.5792 87.3709C74.6185 87.424 74.6731 87.4637 74.7358 87.4846C74.7984 87.5054 74.866 87.5065 74.9292 87.4875C83.9057 84.786 92.3609 80.5866 99.9375 75.0667C99.9745 75.0409 100.006 75.0074 100.029 74.9686C100.052 74.9298 100.066 74.8866 100.071 74.8417C102.154 53.6167 96.5792 35.1751 85.2834 18.8334C85.2557 18.7803 85.2099 18.7389 85.1542 18.7167ZM33.9167 63.6584C28.9917 63.6584 24.9292 59.2042 24.9292 53.7417C24.9292 48.275 28.9126 43.825 33.9167 43.825C38.9584 43.825 42.9834 48.3125 42.9042 53.7417C42.9042 59.2084 38.9209 63.6584 33.9167 63.6584V63.6584ZM67.1459 63.6584C62.2167 63.6584 58.1584 59.2042 58.1584 53.7417C58.1584 48.275 62.1375 43.825 67.1459 43.825C72.1875 43.825 76.2125 48.3125 76.1334 53.7417C76.1334 59.2084 72.1917 63.6584 67.1459 63.6584V63.6584Z" fill="white"/>
</g>
<defs>
<clipPath id="clip0_534_1572">
<rect width="100" height="100" fill="white" transform="translate(0.5)"/>
</clipPath>
</defs>
</svg>
