<?xml version="1.0" encoding="UTF-8" standalone="no"?><svg width="50" height="50" viewBox="0 0 50 50" fill="none" xmlns="http://www.w3.org/2000/svg">
<path d="M41.6668 8.33325H8.33342C6.04175 8.33325 4.18758 10.2083 4.18758 12.4999L4.16675 37.4999C4.16675 39.7916 6.04175 41.6666 8.33342 41.6666H41.6668C43.9584 41.6666 45.8334 39.7916 45.8334 37.4999V12.4999C45.8334 10.2083 43.9584 8.33325 41.6668 8.33325ZM40.8334 17.1874L26.1042 26.3958C25.4376 26.8124 24.5626 26.8124 23.8959 26.3958L9.16675 17.1874C8.95785 17.0701 8.77491 16.9117 8.62902 16.7217C8.48312 16.5317 8.37729 16.314 8.31795 16.0819C8.2586 15.8498 8.24696 15.6081 8.28374 15.3714C8.32052 15.1347 8.40495 14.9079 8.53192 14.7047C8.65889 14.5016 8.82576 14.3263 9.02243 14.1895C9.2191 14.0527 9.44148 13.9572 9.67611 13.9089C9.91075 13.8605 10.1528 13.8603 10.3875 13.9081C10.6222 13.956 10.8448 14.051 11.0417 14.1874L25.0001 22.9166L38.9584 14.1874C39.1554 14.051 39.3779 13.956 39.6127 13.9081C39.8474 13.8603 40.0894 13.8605 40.3241 13.9089C40.5587 13.9572 40.7811 14.0527 40.9777 14.1895C41.1744 14.3263 41.3413 14.5016 41.4682 14.7047C41.5952 14.9079 41.6796 15.1347 41.7164 15.3714C41.7532 15.6081 41.7416 15.8498 41.6822 16.0819C41.6229 16.314 41.517 16.5317 41.3712 16.7217C41.2253 16.9117 41.0423 17.0701 40.8334 17.1874Z" fill="white"/>
</svg>
