<?xml version="1.0" encoding="UTF-8" standalone="no"?><svg width="131" height="44" viewBox="0 0 131 44" fill="none" xmlns="http://www.w3.org/2000/svg">
<g clip-path="url(#clip0_311_616)">
<path d="M29.8893 18.8173L29.3637 18.3824L29.5769 17.7344C29.8134 17.0154 30.2508 16.4256 30.898 16.0322C31.526 15.6504 32.2744 15.5 33.0714 15.5C33.6446 15.5 34.311 15.2958 35.0868 14.7843C35.9135 14.2392 36.5254 13.6918 36.9518 13.1518C37.1881 12.8524 37.3417 12.6239 37.4317 12.4593C37.4661 12.3965 37.4862 12.3518 37.4974 12.3235C37.4891 12.2472 37.459 12.1852 37.3854 12.1107C37.2962 12.0203 37.2311 12 37.1429 12C36.7197 12 36.3837 11.8105 36.1523 11.6174C35.9228 11.4259 35.7346 11.1818 35.5775 10.9342C35.3065 10.507 35.0046 9.98402 34.6727 9.37003C34.3661 8.80276 34.0106 8.22458 33.605 7.63551C33.2523 7.1234 32.7677 6.62613 32.1323 6.14971C31.5395 5.70526 30.8766 5.39859 30.1341 5.22872L29.3571 5.05096V4.25391V1.61559C29.1934 1.77004 29.0157 1.95633 28.8244 2.17826C28.0323 3.09734 27.5553 4.00841 27.3443 4.91122L27.2284 5.4069L26.7595 5.60487C25.6396 6.0776 24.7785 6.89436 24.1695 8.11606C23.5375 9.38395 23.2143 10.7977 23.2143 12.375C23.2143 13.3528 23.0051 14.2872 22.5876 15.167C22.1743 16.0379 21.5905 16.8087 20.8488 17.4785C20.1885 18.0748 19.6296 18.5446 19.1797 18.8746C18.7472 19.192 18.2184 19.5369 17.5996 19.9087C17.5001 19.9829 17.3842 20.0638 17.2686 20.1259C15.6701 21.0482 14.3691 21.9299 13.3539 22.7687C11.5136 24.3095 9.9755 26.2504 8.74468 28.6074C7.49029 31.0096 6.92857 32.9181 6.92857 34.375C6.92857 34.5694 6.90485 34.7648 6.86723 34.9554C6.81877 35.2009 6.70754 35.4077 6.6139 35.5553C6.51346 35.7136 6.38975 35.8705 6.25617 36.0228C5.80995 36.5314 5.20605 36.75 4.57143 36.75C3.7107 36.75 3.10088 36.2312 2.72837 35.5812C2.34103 34.9053 2.21429 33.9946 2.21429 33C2.21429 31.8725 2.4214 30.7536 2.82673 29.648C3.21524 28.5882 3.69411 27.5796 4.26352 26.6232C4.79478 25.7308 5.32653 24.8022 5.85874 23.8373C6.34854 22.9493 6.77419 21.8604 7.12612 20.5576C7.46902 19.2882 7.64286 17.9369 7.64286 16.5C7.64286 15.4327 7.21493 14.4143 6.23472 13.4212C5.25399 12.4276 4.2547 12 3.21429 12C2.7108 12 2.32623 12.1631 1.99631 12.4974C1.66578 12.8323 1.5 13.2282 1.5 13.75C1.5 14.0834 1.56115 14.3417 1.65818 14.5465C1.78613 14.8165 1.95169 15.0661 2.15771 15.2968C2.2952 15.4508 2.40878 15.5812 2.49443 15.6845C2.53691 15.7357 2.57819 15.7871 2.61427 15.8354L2.61443 15.8356C2.63414 15.8619 2.68108 15.9247 2.7257 16.0041C3.73426 17.7041 4.21429 19.7174 4.21429 22C4.21429 22.5858 4.07553 23.3714 3.84588 24.3021C3.61134 25.2526 3.26366 26.4247 2.80705 27.8125C2.3589 29.1747 2.02801 30.2942 1.81017 31.1771C1.58744 32.0797 1.5 32.6691 1.5 33C1.5 34.7618 1.76058 36.4166 2.27612 37.9702C2.78683 39.5092 3.51968 40.7374 4.45613 41.6862C5.36118 42.6032 6.2958 43 7.28572 43H26.2857C26.374 43 26.4391 42.9797 26.5282 42.8893C26.6177 42.7987 26.6429 42.7267 26.6429 42.625C26.6429 42.5233 26.6177 42.4513 26.5282 42.3607C26.4391 42.2703 26.374 42.25 26.2857 42.25C25.6498 42.25 25.0593 42.0326 24.5986 41.5658C24.1388 41.0999 23.9286 40.5082 23.9286 39.875C23.9286 38.8874 24.2988 37.8448 24.9088 36.7788C25.4985 35.7483 26.2015 34.6957 27.0152 33.621C27.8003 32.5841 28.5857 31.5113 29.3716 30.4023C30.1183 29.3485 30.7622 28.1814 31.3012 26.8979C31.8233 25.6549 32.0714 24.483 32.0714 23.375C32.0714 21.533 31.3627 20.0365 29.8893 18.8173ZM37.5082 12.2926C37.5082 12.2926 37.5079 12.2935 37.5075 12.2953C37.508 12.2935 37.5082 12.2926 37.5082 12.2926Z" fill="white" stroke="white" stroke-width="2"/>
</g>
<path d="M55.74 9.62C55.74 10.15 55.475 10.415 54.945 10.415C54.415 10.415 54.15 10.15 54.15 9.62C54.15 9.09 54.415 8.825 54.945 8.825C55.475 8.825 55.74 9.09 55.74 9.62ZM53.85 9.62C53.85 10.15 53.585 10.415 53.055 10.415C52.525 10.415 52.26 10.15 52.26 9.62C52.26 9.09 52.525 8.825 53.055 8.825C53.585 8.825 53.85 9.09 53.85 9.62ZM55.695 11.51C55.695 12.01 55.445 12.26 54.945 12.26C54.445 12.26 54.195 12.01 54.195 11.51C54.195 11.01 54.445 10.76 54.945 10.76C55.445 10.76 55.695 11.01 55.695 11.51ZM51.96 9.62C51.96 10.15 51.695 10.415 51.165 10.415C50.635 10.415 50.37 10.15 50.37 9.62C50.37 9.09 50.635 8.825 51.165 8.825C51.695 8.825 51.96 9.09 51.96 9.62ZM55.65 13.4C55.65 13.87 55.415 14.105 54.945 14.105C54.475 14.105 54.24 13.87 54.24 13.4C54.24 12.93 54.475 12.695 54.945 12.695C55.415 12.695 55.65 12.93 55.65 13.4ZM50.07 9.62C50.07 10.15 49.805 10.415 49.275 10.415C48.745 10.415 48.48 10.15 48.48 9.62C48.48 9.09 48.745 8.825 49.275 8.825C49.805 8.825 50.07 9.09 50.07 9.62ZM55.605 15.29C55.605 15.73 55.385 15.95 54.945 15.95C54.505 15.95 54.285 15.73 54.285 15.29C54.285 14.85 54.505 14.63 54.945 14.63C55.385 14.63 55.605 14.85 55.605 15.29ZM55.56 17.18C55.56 17.6 55.355 17.81 54.945 17.81C54.535 17.81 54.33 17.6 54.33 17.18C54.33 16.77 54.535 16.565 54.945 16.565C55.355 16.565 55.56 16.77 55.56 17.18ZM48.135 11.51C48.135 12.01 47.885 12.26 47.385 12.26C46.885 12.26 46.635 12.01 46.635 11.51C46.635 11.01 46.885 10.76 47.385 10.76C47.885 10.76 48.135 11.01 48.135 11.51ZM53.67 17.18C53.67 17.6 53.465 17.81 53.055 17.81C52.645 17.81 52.44 17.6 52.44 17.18C52.44 16.77 52.645 16.565 53.055 16.565C53.465 16.565 53.67 16.77 53.67 17.18ZM48.09 13.4C48.09 13.87 47.855 14.105 47.385 14.105C46.915 14.105 46.68 13.87 46.68 13.4C46.68 12.93 46.915 12.695 47.385 12.695C47.855 12.695 48.09 12.93 48.09 13.4ZM51.78 17.18C51.78 17.6 51.575 17.81 51.165 17.81C50.755 17.81 50.55 17.6 50.55 17.18C50.55 16.77 50.755 16.565 51.165 16.565C51.575 16.565 51.78 16.77 51.78 17.18ZM48.045 15.29C48.045 15.73 47.825 15.95 47.385 15.95C46.945 15.95 46.725 15.73 46.725 15.29C46.725 14.85 46.945 14.63 47.385 14.63C47.825 14.63 48.045 14.85 48.045 15.29ZM49.89 17.18C49.89 17.6 49.685 17.81 49.275 17.81C48.865 17.81 48.66 17.6 48.66 17.18C48.66 16.77 48.865 16.565 49.275 16.565C49.685 16.565 49.89 16.77 49.89 17.18ZM55.515 19.07C55.515 19.46 55.325 19.655 54.945 19.655C54.565 19.655 54.375 19.46 54.375 19.07C54.375 18.69 54.565 18.5 54.945 18.5C55.325 18.5 55.515 18.69 55.515 19.07ZM53.58 20.96C53.58 21.32 53.405 21.5 53.055 21.5C52.705 21.5 52.53 21.32 52.53 20.96C52.53 20.61 52.705 20.435 53.055 20.435C53.405 20.435 53.58 20.61 53.58 20.96ZM51.69 20.96C51.69 21.32 51.515 21.5 51.165 21.5C50.815 21.5 50.64 21.32 50.64 20.96C50.64 20.61 50.815 20.435 51.165 20.435C51.515 20.435 51.69 20.61 51.69 20.96ZM49.8 20.96C49.8 21.32 49.625 21.5 49.275 21.5C48.925 21.5 48.75 21.32 48.75 20.96C48.75 20.61 48.925 20.435 49.275 20.435C49.625 20.435 49.8 20.61 49.8 20.96ZM62.8459 5.84C62.8459 6.43 62.5509 6.725 61.9609 6.725C61.3709 6.725 61.0759 6.43 61.0759 5.84C61.0759 5.25 61.3709 4.955 61.9609 4.955C62.5509 4.955 62.8459 5.25 62.8459 5.84ZM60.9559 5.84C60.9559 6.43 60.6609 6.725 60.0709 6.725C59.4809 6.725 59.1859 6.43 59.1859 5.84C59.1859 5.25 59.4809 4.955 60.0709 4.955C60.6609 4.955 60.9559 5.25 60.9559 5.84ZM62.8009 7.73C62.8009 8.29 62.5209 8.57 61.9609 8.57C61.4009 8.57 61.1209 8.29 61.1209 7.73C61.1209 7.17 61.4009 6.89 61.9609 6.89C62.5209 6.89 62.8009 7.17 62.8009 7.73ZM62.7559 9.62C62.7559 10.15 62.4909 10.415 61.9609 10.415C61.4309 10.415 61.1659 10.15 61.1659 9.62C61.1659 9.09 61.4309 8.825 61.9609 8.825C62.4909 8.825 62.7559 9.09 62.7559 9.62ZM62.7109 11.51C62.7109 12.01 62.4609 12.26 61.9609 12.26C61.4609 12.26 61.2109 12.01 61.2109 11.51C61.2109 11.01 61.4609 10.76 61.9609 10.76C62.4609 10.76 62.7109 11.01 62.7109 11.51ZM62.6659 13.4C62.6659 13.87 62.4309 14.105 61.9609 14.105C61.4909 14.105 61.2559 13.87 61.2559 13.4C61.2559 12.93 61.4909 12.695 61.9609 12.695C62.4309 12.695 62.6659 12.93 62.6659 13.4ZM62.6209 15.29C62.6209 15.73 62.4009 15.95 61.9609 15.95C61.5209 15.95 61.3009 15.73 61.3009 15.29C61.3009 14.85 61.5209 14.63 61.9609 14.63C62.4009 14.63 62.6209 14.85 62.6209 15.29ZM64.4659 17.18C64.4659 17.6 64.2609 17.81 63.8509 17.81C63.4409 17.81 63.2359 17.6 63.2359 17.18C63.2359 16.77 63.4409 16.565 63.8509 16.565C64.2609 16.565 64.4659 16.77 64.4659 17.18ZM62.5759 17.18C62.5759 17.6 62.3709 17.81 61.9609 17.81C61.5509 17.81 61.3459 17.6 61.3459 17.18C61.3459 16.77 61.5509 16.565 61.9609 16.565C62.3709 16.565 62.5759 16.77 62.5759 17.18ZM60.6859 17.18C60.6859 17.6 60.4809 17.81 60.0709 17.81C59.6609 17.81 59.4559 17.6 59.4559 17.18C59.4559 16.77 59.6609 16.565 60.0709 16.565C60.4809 16.565 60.6859 16.77 60.6859 17.18ZM75.4418 9.62C75.4418 10.15 75.1768 10.415 74.6468 10.415C74.1168 10.415 73.8518 10.15 73.8518 9.62C73.8518 9.09 74.1168 8.825 74.6468 8.825C75.1768 8.825 75.4418 9.09 75.4418 9.62ZM77.2868 11.51C77.2868 12.01 77.0368 12.26 76.5368 12.26C76.0368 12.26 75.7868 12.01 75.7868 11.51C75.7868 11.01 76.0368 10.76 76.5368 10.76C77.0368 10.76 77.2868 11.01 77.2868 11.51ZM73.5518 9.62C73.5518 10.15 73.2868 10.415 72.7568 10.415C72.2268 10.415 71.9618 10.15 71.9618 9.62C71.9618 9.09 72.2268 8.825 72.7568 8.825C73.2868 8.825 73.5518 9.09 73.5518 9.62ZM77.2418 13.4C77.2418 13.87 77.0068 14.105 76.5368 14.105C76.0668 14.105 75.8318 13.87 75.8318 13.4C75.8318 12.93 76.0668 12.695 76.5368 12.695C77.0068 12.695 77.2418 12.93 77.2418 13.4ZM71.6618 9.62C71.6618 10.15 71.3968 10.415 70.8668 10.415C70.3368 10.415 70.0718 10.15 70.0718 9.62C70.0718 9.09 70.3368 8.825 70.8668 8.825C71.3968 8.825 71.6618 9.09 71.6618 9.62ZM77.1968 15.29C77.1968 15.73 76.9768 15.95 76.5368 15.95C76.0968 15.95 75.8768 15.73 75.8768 15.29C75.8768 14.85 76.0968 14.63 76.5368 14.63C76.9768 14.63 77.1968 14.85 77.1968 15.29ZM69.7268 11.51C69.7268 12.01 69.4768 12.26 68.9768 12.26C68.4768 12.26 68.2268 12.01 68.2268 11.51C68.2268 11.01 68.4768 10.76 68.9768 10.76C69.4768 10.76 69.7268 11.01 69.7268 11.51ZM75.2618 17.18C75.2618 17.6 75.0568 17.81 74.6468 17.81C74.2368 17.81 74.0318 17.6 74.0318 17.18C74.0318 16.77 74.2368 16.565 74.6468 16.565C75.0568 16.565 75.2618 16.77 75.2618 17.18ZM69.6818 13.4C69.6818 13.87 69.4468 14.105 68.9768 14.105C68.5068 14.105 68.2718 13.87 68.2718 13.4C68.2718 12.93 68.5068 12.695 68.9768 12.695C69.4468 12.695 69.6818 12.93 69.6818 13.4ZM73.3718 17.18C73.3718 17.6 73.1668 17.81 72.7568 17.81C72.3468 17.81 72.1418 17.6 72.1418 17.18C72.1418 16.77 72.3468 16.565 72.7568 16.565C73.1668 16.565 73.3718 16.77 73.3718 17.18ZM69.6368 15.29C69.6368 15.73 69.4168 15.95 68.9768 15.95C68.5368 15.95 68.3168 15.73 68.3168 15.29C68.3168 14.85 68.5368 14.63 68.9768 14.63C69.4168 14.63 69.6368 14.85 69.6368 15.29ZM71.4818 17.18C71.4818 17.6 71.2768 17.81 70.8668 17.81C70.4568 17.81 70.2518 17.6 70.2518 17.18C70.2518 16.77 70.4568 16.565 70.8668 16.565C71.2768 16.565 71.4818 16.77 71.4818 17.18ZM88.1277 9.62C88.1277 10.15 87.8627 10.415 87.3327 10.415C86.8027 10.415 86.5377 10.15 86.5377 9.62C86.5377 9.09 86.8027 8.825 87.3327 8.825C87.8627 8.825 88.1277 9.09 88.1277 9.62ZM88.0827 11.51C88.0827 12.01 87.8327 12.26 87.3327 12.26C86.8327 12.26 86.5827 12.01 86.5827 11.51C86.5827 11.01 86.8327 10.76 87.3327 10.76C87.8327 10.76 88.0827 11.01 88.0827 11.51ZM84.3477 9.62C84.3477 10.15 84.0827 10.415 83.5527 10.415C83.0227 10.415 82.7577 10.15 82.7577 9.62C82.7577 9.09 83.0227 8.825 83.5527 8.825C84.0827 8.825 84.3477 9.09 84.3477 9.62ZM88.0377 13.4C88.0377 13.87 87.8027 14.105 87.3327 14.105C86.8627 14.105 86.6277 13.87 86.6277 13.4C86.6277 12.93 86.8627 12.695 87.3327 12.695C87.8027 12.695 88.0377 12.93 88.0377 13.4ZM84.3027 11.51C84.3027 12.01 84.0527 12.26 83.5527 12.26C83.0527 12.26 82.8027 12.01 82.8027 11.51C82.8027 11.01 83.0527 10.76 83.5527 10.76C84.0527 10.76 84.3027 11.01 84.3027 11.51ZM87.9927 15.29C87.9927 15.73 87.7727 15.95 87.3327 15.95C86.8927 15.95 86.6727 15.73 86.6727 15.29C86.6727 14.85 86.8927 14.63 87.3327 14.63C87.7727 14.63 87.9927 14.85 87.9927 15.29ZM80.5677 9.62C80.5677 10.15 80.3027 10.415 79.7727 10.415C79.2427 10.415 78.9777 10.15 78.9777 9.62C78.9777 9.09 79.2427 8.825 79.7727 8.825C80.3027 8.825 80.5677 9.09 80.5677 9.62ZM84.2577 13.4C84.2577 13.87 84.0227 14.105 83.5527 14.105C83.0827 14.105 82.8477 13.87 82.8477 13.4C82.8477 12.93 83.0827 12.695 83.5527 12.695C84.0227 12.695 84.2577 12.93 84.2577 13.4ZM80.5227 11.51C80.5227 12.01 80.2727 12.26 79.7727 12.26C79.2727 12.26 79.0227 12.01 79.0227 11.51C79.0227 11.01 79.2727 10.76 79.7727 10.76C80.2727 10.76 80.5227 11.01 80.5227 11.51ZM84.2127 15.29C84.2127 15.73 83.9927 15.95 83.5527 15.95C83.1127 15.95 82.8927 15.73 82.8927 15.29C82.8927 14.85 83.1127 14.63 83.5527 14.63C83.9927 14.63 84.2127 14.85 84.2127 15.29ZM86.0577 17.18C86.0577 17.6 85.8527 17.81 85.4427 17.81C85.0327 17.81 84.8277 17.6 84.8277 17.18C84.8277 16.77 85.0327 16.565 85.4427 16.565C85.8527 16.565 86.0577 16.77 86.0577 17.18ZM80.4777 13.4C80.4777 13.87 80.2427 14.105 79.7727 14.105C79.3027 14.105 79.0677 13.87 79.0677 13.4C79.0677 12.93 79.3027 12.695 79.7727 12.695C80.2427 12.695 80.4777 12.93 80.4777 13.4ZM80.4327 15.29C80.4327 15.73 80.2127 15.95 79.7727 15.95C79.3327 15.95 79.1127 15.73 79.1127 15.29C79.1127 14.85 79.3327 14.63 79.7727 14.63C80.2127 14.63 80.4327 14.85 80.4327 15.29ZM82.2777 17.18C82.2777 17.6 82.0727 17.81 81.6627 17.81C81.2527 17.81 81.0477 17.6 81.0477 17.18C81.0477 16.77 81.2527 16.565 81.6627 16.565C82.0727 16.565 82.2777 16.77 82.2777 17.18ZM95.2336 5.84C95.2336 6.43 94.9386 6.725 94.3486 6.725C93.7586 6.725 93.4636 6.43 93.4636 5.84C93.4636 5.25 93.7586 4.955 94.3486 4.955C94.9386 4.955 95.2336 5.25 95.2336 5.84ZM95.1436 9.62C95.1436 10.15 94.8786 10.415 94.3486 10.415C93.8186 10.415 93.5536 10.15 93.5536 9.62C93.5536 9.09 93.8186 8.825 94.3486 8.825C94.8786 8.825 95.1436 9.09 95.1436 9.62ZM93.2536 9.62C93.2536 10.15 92.9886 10.415 92.4586 10.415C91.9286 10.415 91.6636 10.15 91.6636 9.62C91.6636 9.09 91.9286 8.825 92.4586 8.825C92.9886 8.825 93.2536 9.09 93.2536 9.62ZM95.0986 11.51C95.0986 12.01 94.8486 12.26 94.3486 12.26C93.8486 12.26 93.5986 12.01 93.5986 11.51C93.5986 11.01 93.8486 10.76 94.3486 10.76C94.8486 10.76 95.0986 11.01 95.0986 11.51ZM95.0536 13.4C95.0536 13.87 94.8186 14.105 94.3486 14.105C93.8786 14.105 93.6436 13.87 93.6436 13.4C93.6436 12.93 93.8786 12.695 94.3486 12.695C94.8186 12.695 95.0536 12.93 95.0536 13.4ZM95.0086 15.29C95.0086 15.73 94.7886 15.95 94.3486 15.95C93.9086 15.95 93.6886 15.73 93.6886 15.29C93.6886 14.85 93.9086 14.63 94.3486 14.63C94.7886 14.63 95.0086 14.85 95.0086 15.29ZM96.8536 17.18C96.8536 17.6 96.6486 17.81 96.2386 17.81C95.8286 17.81 95.6236 17.6 95.6236 17.18C95.6236 16.77 95.8286 16.565 96.2386 16.565C96.6486 16.565 96.8536 16.77 96.8536 17.18ZM94.9636 17.18C94.9636 17.6 94.7586 17.81 94.3486 17.81C93.9386 17.81 93.7336 17.6 93.7336 17.18C93.7336 16.77 93.9386 16.565 94.3486 16.565C94.7586 16.565 94.9636 16.77 94.9636 17.18ZM93.0736 17.18C93.0736 17.6 92.8686 17.81 92.4586 17.81C92.0486 17.81 91.8436 17.6 91.8436 17.18C91.8436 16.77 92.0486 16.565 92.4586 16.565C92.8686 16.565 93.0736 16.77 93.0736 17.18ZM107.829 9.62C107.829 10.15 107.564 10.415 107.034 10.415C106.504 10.415 106.239 10.15 106.239 9.62C106.239 9.09 106.504 8.825 107.034 8.825C107.564 8.825 107.829 9.09 107.829 9.62ZM109.674 11.51C109.674 12.01 109.424 12.26 108.924 12.26C108.424 12.26 108.174 12.01 108.174 11.51C108.174 11.01 108.424 10.76 108.924 10.76C109.424 10.76 109.674 11.01 109.674 11.51ZM105.939 9.62C105.939 10.15 105.674 10.415 105.144 10.415C104.614 10.415 104.349 10.15 104.349 9.62C104.349 9.09 104.614 8.825 105.144 8.825C105.674 8.825 105.939 9.09 105.939 9.62ZM109.629 13.4C109.629 13.87 109.394 14.105 108.924 14.105C108.454 14.105 108.219 13.87 108.219 13.4C108.219 12.93 108.454 12.695 108.924 12.695C109.394 12.695 109.629 12.93 109.629 13.4ZM104.049 9.62C104.049 10.15 103.784 10.415 103.254 10.415C102.724 10.415 102.459 10.15 102.459 9.62C102.459 9.09 102.724 8.825 103.254 8.825C103.784 8.825 104.049 9.09 104.049 9.62ZM109.584 15.29C109.584 15.73 109.364 15.95 108.924 15.95C108.484 15.95 108.264 15.73 108.264 15.29C108.264 14.85 108.484 14.63 108.924 14.63C109.364 14.63 109.584 14.85 109.584 15.29ZM102.159 9.62C102.159 10.15 101.894 10.415 101.364 10.415C100.834 10.415 100.569 10.15 100.569 9.62C100.569 9.09 100.834 8.825 101.364 8.825C101.894 8.825 102.159 9.09 102.159 9.62ZM109.539 17.18C109.539 17.6 109.334 17.81 108.924 17.81C108.514 17.81 108.309 17.6 108.309 17.18C108.309 16.77 108.514 16.565 108.924 16.565C109.334 16.565 109.539 16.77 109.539 17.18ZM102.114 11.51C102.114 12.01 101.864 12.26 101.364 12.26C100.864 12.26 100.614 12.01 100.614 11.51C100.614 11.01 100.864 10.76 101.364 10.76C101.864 10.76 102.114 11.01 102.114 11.51ZM102.069 13.4C102.069 13.87 101.834 14.105 101.364 14.105C100.894 14.105 100.659 13.87 100.659 13.4C100.659 12.93 100.894 12.695 101.364 12.695C101.834 12.695 102.069 12.93 102.069 13.4ZM102.024 15.29C102.024 15.73 101.804 15.95 101.364 15.95C100.924 15.95 100.704 15.73 100.704 15.29C100.704 14.85 100.924 14.63 101.364 14.63C101.804 14.63 102.024 14.85 102.024 15.29ZM101.979 17.18C101.979 17.6 101.774 17.81 101.364 17.81C100.954 17.81 100.749 17.6 100.749 17.18C100.749 16.77 100.954 16.565 101.364 16.565C101.774 16.565 101.979 16.77 101.979 17.18ZM120.515 9.62C120.515 10.15 120.25 10.415 119.72 10.415C119.19 10.415 118.925 10.15 118.925 9.62C118.925 9.09 119.19 8.825 119.72 8.825C120.25 8.825 120.515 9.09 120.515 9.62ZM118.625 9.62C118.625 10.15 118.36 10.415 117.83 10.415C117.3 10.415 117.035 10.15 117.035 9.62C117.035 9.09 117.3 8.825 117.83 8.825C118.36 8.825 118.625 9.09 118.625 9.62ZM120.47 11.51C120.47 12.01 120.22 12.26 119.72 12.26C119.22 12.26 118.97 12.01 118.97 11.51C118.97 11.01 119.22 10.76 119.72 10.76C120.22 10.76 120.47 11.01 120.47 11.51ZM116.735 9.62C116.735 10.15 116.47 10.415 115.94 10.415C115.41 10.415 115.145 10.15 115.145 9.62C115.145 9.09 115.41 8.825 115.94 8.825C116.47 8.825 116.735 9.09 116.735 9.62ZM120.425 13.4C120.425 13.87 120.19 14.105 119.72 14.105C119.25 14.105 119.015 13.87 119.015 13.4C119.015 12.93 119.25 12.695 119.72 12.695C120.19 12.695 120.425 12.93 120.425 13.4ZM114.845 9.62C114.845 10.15 114.58 10.415 114.05 10.415C113.52 10.415 113.255 10.15 113.255 9.62C113.255 9.09 113.52 8.825 114.05 8.825C114.58 8.825 114.845 9.09 114.845 9.62ZM120.38 15.29C120.38 15.73 120.16 15.95 119.72 15.95C119.28 15.95 119.06 15.73 119.06 15.29C119.06 14.85 119.28 14.63 119.72 14.63C120.16 14.63 120.38 14.85 120.38 15.29ZM120.335 17.18C120.335 17.6 120.13 17.81 119.72 17.81C119.31 17.81 119.105 17.6 119.105 17.18C119.105 16.77 119.31 16.565 119.72 16.565C120.13 16.565 120.335 16.77 120.335 17.18ZM112.91 11.51C112.91 12.01 112.66 12.26 112.16 12.26C111.66 12.26 111.41 12.01 111.41 11.51C111.41 11.01 111.66 10.76 112.16 10.76C112.66 10.76 112.91 11.01 112.91 11.51ZM118.445 17.18C118.445 17.6 118.24 17.81 117.83 17.81C117.42 17.81 117.215 17.6 117.215 17.18C117.215 16.77 117.42 16.565 117.83 16.565C118.24 16.565 118.445 16.77 118.445 17.18ZM112.865 13.4C112.865 13.87 112.63 14.105 112.16 14.105C111.69 14.105 111.455 13.87 111.455 13.4C111.455 12.93 111.69 12.695 112.16 12.695C112.63 12.695 112.865 12.93 112.865 13.4ZM116.555 17.18C116.555 17.6 116.35 17.81 115.94 17.81C115.53 17.81 115.325 17.6 115.325 17.18C115.325 16.77 115.53 16.565 115.94 16.565C116.35 16.565 116.555 16.77 116.555 17.18ZM112.82 15.29C112.82 15.73 112.6 15.95 112.16 15.95C111.72 15.95 111.5 15.73 111.5 15.29C111.5 14.85 111.72 14.63 112.16 14.63C112.6 14.63 112.82 14.85 112.82 15.29ZM114.665 17.18C114.665 17.6 114.46 17.81 114.05 17.81C113.64 17.81 113.435 17.6 113.435 17.18C113.435 16.77 113.64 16.565 114.05 16.565C114.46 16.565 114.665 16.77 114.665 17.18ZM120.29 19.07C120.29 19.46 120.1 19.655 119.72 19.655C119.34 19.655 119.15 19.46 119.15 19.07C119.15 18.69 119.34 18.5 119.72 18.5C120.1 18.5 120.29 18.69 120.29 19.07ZM118.355 20.96C118.355 21.32 118.18 21.5 117.83 21.5C117.48 21.5 117.305 21.32 117.305 20.96C117.305 20.61 117.48 20.435 117.83 20.435C118.18 20.435 118.355 20.61 118.355 20.96ZM116.465 20.96C116.465 21.32 116.29 21.5 115.94 21.5C115.59 21.5 115.415 21.32 115.415 20.96C115.415 20.61 115.59 20.435 115.94 20.435C116.29 20.435 116.465 20.61 116.465 20.96ZM114.575 20.96C114.575 21.32 114.4 21.5 114.05 21.5C113.7 21.5 113.525 21.32 113.525 20.96C113.525 20.61 113.7 20.435 114.05 20.435C114.4 20.435 114.575 20.61 114.575 20.96ZM55.74 26.62C55.74 27.15 55.475 27.415 54.945 27.415C54.415 27.415 54.15 27.15 54.15 26.62C54.15 26.09 54.415 25.825 54.945 25.825C55.475 25.825 55.74 26.09 55.74 26.62ZM48.27 22.84C48.27 23.43 47.975 23.725 47.385 23.725C46.795 23.725 46.5 23.43 46.5 22.84C46.5 22.25 46.795 21.955 47.385 21.955C47.975 21.955 48.27 22.25 48.27 22.84ZM53.805 28.51C53.805 29.01 53.555 29.26 53.055 29.26C52.555 29.26 52.305 29.01 52.305 28.51C52.305 28.01 52.555 27.76 53.055 27.76C53.555 27.76 53.805 28.01 53.805 28.51ZM48.225 24.73C48.225 25.29 47.945 25.57 47.385 25.57C46.825 25.57 46.545 25.29 46.545 24.73C46.545 24.17 46.825 23.89 47.385 23.89C47.945 23.89 48.225 24.17 48.225 24.73ZM48.18 26.62C48.18 27.15 47.915 27.415 47.385 27.415C46.855 27.415 46.59 27.15 46.59 26.62C46.59 26.09 46.855 25.825 47.385 25.825C47.915 25.825 48.18 26.09 48.18 26.62ZM51.87 30.4C51.87 30.87 51.635 31.105 51.165 31.105C50.695 31.105 50.46 30.87 50.46 30.4C50.46 29.93 50.695 29.695 51.165 29.695C51.635 29.695 51.87 29.93 51.87 30.4ZM53.715 32.29C53.715 32.73 53.495 32.95 53.055 32.95C52.615 32.95 52.395 32.73 52.395 32.29C52.395 31.85 52.615 31.63 53.055 31.63C53.495 31.63 53.715 31.85 53.715 32.29ZM55.56 34.18C55.56 34.6 55.355 34.81 54.945 34.81C54.535 34.81 54.33 34.6 54.33 34.18C54.33 33.77 54.535 33.565 54.945 33.565C55.355 33.565 55.56 33.77 55.56 34.18ZM48.135 28.51C48.135 29.01 47.885 29.26 47.385 29.26C46.885 29.26 46.635 29.01 46.635 28.51C46.635 28.01 46.885 27.76 47.385 27.76C47.885 27.76 48.135 28.01 48.135 28.51ZM49.98 30.4C49.98 30.87 49.745 31.105 49.275 31.105C48.805 31.105 48.57 30.87 48.57 30.4C48.57 29.93 48.805 29.695 49.275 29.695C49.745 29.695 49.98 29.93 49.98 30.4ZM48.09 30.4C48.09 30.87 47.855 31.105 47.385 31.105C46.915 31.105 46.68 30.87 46.68 30.4C46.68 29.93 46.915 29.695 47.385 29.695C47.855 29.695 48.09 29.93 48.09 30.4ZM48.045 32.29C48.045 32.73 47.825 32.95 47.385 32.95C46.945 32.95 46.725 32.73 46.725 32.29C46.725 31.85 46.945 31.63 47.385 31.63C47.825 31.63 48.045 31.85 48.045 32.29ZM48 34.18C48 34.6 47.795 34.81 47.385 34.81C46.975 34.81 46.77 34.6 46.77 34.18C46.77 33.77 46.975 33.565 47.385 33.565C47.795 33.565 48 33.77 48 34.18ZM62.8459 22.84C62.8459 23.43 62.5509 23.725 61.9609 23.725C61.3709 23.725 61.0759 23.43 61.0759 22.84C61.0759 22.25 61.3709 21.955 61.9609 21.955C62.5509 21.955 62.8459 22.25 62.8459 22.84ZM62.7559 26.62C62.7559 27.15 62.4909 27.415 61.9609 27.415C61.4309 27.415 61.1659 27.15 61.1659 26.62C61.1659 26.09 61.4309 25.825 61.9609 25.825C62.4909 25.825 62.7559 26.09 62.7559 26.62ZM60.8659 26.62C60.8659 27.15 60.6009 27.415 60.0709 27.415C59.5409 27.415 59.2759 27.15 59.2759 26.62C59.2759 26.09 59.5409 25.825 60.0709 25.825C60.6009 25.825 60.8659 26.09 60.8659 26.62ZM62.7109 28.51C62.7109 29.01 62.4609 29.26 61.9609 29.26C61.4609 29.26 61.2109 29.01 61.2109 28.51C61.2109 28.01 61.4609 27.76 61.9609 27.76C62.4609 27.76 62.7109 28.01 62.7109 28.51ZM62.6659 30.4C62.6659 30.87 62.4309 31.105 61.9609 31.105C61.4909 31.105 61.2559 30.87 61.2559 30.4C61.2559 29.93 61.4909 29.695 61.9609 29.695C62.4309 29.695 62.6659 29.93 62.6659 30.4ZM62.6209 32.29C62.6209 32.73 62.4009 32.95 61.9609 32.95C61.5209 32.95 61.3009 32.73 61.3009 32.29C61.3009 31.85 61.5209 31.63 61.9609 31.63C62.4009 31.63 62.6209 31.85 62.6209 32.29ZM64.4659 34.18C64.4659 34.6 64.2609 34.81 63.8509 34.81C63.4409 34.81 63.2359 34.6 63.2359 34.18C63.2359 33.77 63.4409 33.565 63.8509 33.565C64.2609 33.565 64.4659 33.77 64.4659 34.18ZM62.5759 34.18C62.5759 34.6 62.3709 34.81 61.9609 34.81C61.5509 34.81 61.3459 34.6 61.3459 34.18C61.3459 33.77 61.5509 33.565 61.9609 33.565C62.3709 33.565 62.5759 33.77 62.5759 34.18ZM60.6859 34.18C60.6859 34.6 60.4809 34.81 60.0709 34.81C59.6609 34.81 59.4559 34.6 59.4559 34.18C59.4559 33.77 59.6609 33.565 60.0709 33.565C60.4809 33.565 60.6859 33.77 60.6859 34.18ZM77.3318 26.62C77.3318 27.15 77.0668 27.415 76.5368 27.415C76.0068 27.415 75.7418 27.15 75.7418 26.62C75.7418 26.09 76.0068 25.825 76.5368 25.825C77.0668 25.825 77.3318 26.09 77.3318 26.62ZM71.7518 22.84C71.7518 23.43 71.4568 23.725 70.8668 23.725C70.2768 23.725 69.9818 23.43 69.9818 22.84C69.9818 22.25 70.2768 21.955 70.8668 21.955C71.4568 21.955 71.7518 22.25 71.7518 22.84ZM75.4418 26.62C75.4418 27.15 75.1768 27.415 74.6468 27.415C74.1168 27.415 73.8518 27.15 73.8518 26.62C73.8518 26.09 74.1168 25.825 74.6468 25.825C75.1768 25.825 75.4418 26.09 75.4418 26.62ZM71.7068 24.73C71.7068 25.29 71.4268 25.57 70.8668 25.57C70.3068 25.57 70.0268 25.29 70.0268 24.73C70.0268 24.17 70.3068 23.89 70.8668 23.89C71.4268 23.89 71.7068 24.17 71.7068 24.73ZM73.5518 26.62C73.5518 27.15 73.2868 27.415 72.7568 27.415C72.2268 27.415 71.9618 27.15 71.9618 26.62C71.9618 26.09 72.2268 25.825 72.7568 25.825C73.2868 25.825 73.5518 26.09 73.5518 26.62ZM71.6618 26.62C71.6618 27.15 71.3968 27.415 70.8668 27.415C70.3368 27.415 70.0718 27.15 70.0718 26.62C70.0718 26.09 70.3368 25.825 70.8668 25.825C71.3968 25.825 71.6618 26.09 71.6618 26.62ZM77.1968 32.29C77.1968 32.73 76.9768 32.95 76.5368 32.95C76.0968 32.95 75.8768 32.73 75.8768 32.29C75.8768 31.85 76.0968 31.63 76.5368 31.63C76.9768 31.63 77.1968 31.85 77.1968 32.29ZM69.7718 26.62C69.7718 27.15 69.5068 27.415 68.9768 27.415C68.4468 27.415 68.1818 27.15 68.1818 26.62C68.1818 26.09 68.4468 25.825 68.9768 25.825C69.5068 25.825 69.7718 26.09 69.7718 26.62ZM71.6168 28.51C71.6168 29.01 71.3668 29.26 70.8668 29.26C70.3668 29.26 70.1168 29.01 70.1168 28.51C70.1168 28.01 70.3668 27.76 70.8668 27.76C71.3668 27.76 71.6168 28.01 71.6168 28.51ZM71.5718 30.4C71.5718 30.87 71.3368 31.105 70.8668 31.105C70.3968 31.105 70.1618 30.87 70.1618 30.4C70.1618 29.93 70.3968 29.695 70.8668 29.695C71.3368 29.695 71.5718 29.93 71.5718 30.4ZM75.2618 34.18C75.2618 34.6 75.0568 34.81 74.6468 34.81C74.2368 34.81 74.0318 34.6 74.0318 34.18C74.0318 33.77 74.2368 33.565 74.6468 33.565C75.0568 33.565 75.2618 33.77 75.2618 34.18ZM73.3718 34.18C73.3718 34.6 73.1668 34.81 72.7568 34.81C72.3468 34.81 72.1418 34.6 72.1418 34.18C72.1418 33.77 72.3468 33.565 72.7568 33.565C73.1668 33.565 73.3718 33.77 73.3718 34.18ZM71.5268 32.29C71.5268 32.73 71.3068 32.95 70.8668 32.95C70.4268 32.95 70.2068 32.73 70.2068 32.29C70.2068 31.85 70.4268 31.63 70.8668 31.63C71.3068 31.63 71.5268 31.85 71.5268 32.29ZM88.1277 26.62C88.1277 27.15 87.8627 27.415 87.3327 27.415C86.8027 27.415 86.5377 27.15 86.5377 26.62C86.5377 26.09 86.8027 25.825 87.3327 25.825C87.8627 25.825 88.1277 26.09 88.1277 26.62ZM82.5477 22.84C82.5477 23.43 82.2527 23.725 81.6627 23.725C81.0727 23.725 80.7777 23.43 80.7777 22.84C80.7777 22.25 81.0727 21.955 81.6627 21.955C82.2527 21.955 82.5477 22.25 82.5477 22.84ZM86.2377 26.62C86.2377 27.15 85.9727 27.415 85.4427 27.415C84.9127 27.415 84.6477 27.15 84.6477 26.62C84.6477 26.09 84.9127 25.825 85.4427 25.825C85.9727 25.825 86.2377 26.09 86.2377 26.62ZM82.5027 24.73C82.5027 25.29 82.2227 25.57 81.6627 25.57C81.1027 25.57 80.8227 25.29 80.8227 24.73C80.8227 24.17 81.1027 23.89 81.6627 23.89C82.2227 23.89 82.5027 24.17 82.5027 24.73ZM84.3477 26.62C84.3477 27.15 84.0827 27.415 83.5527 27.415C83.0227 27.415 82.7577 27.15 82.7577 26.62C82.7577 26.09 83.0227 25.825 83.5527 25.825C84.0827 25.825 84.3477 26.09 84.3477 26.62ZM82.4577 26.62C82.4577 27.15 82.1927 27.415 81.6627 27.415C81.1327 27.415 80.8677 27.15 80.8677 26.62C80.8677 26.09 81.1327 25.825 81.6627 25.825C82.1927 25.825 82.4577 26.09 82.4577 26.62ZM87.9927 32.29C87.9927 32.73 87.7727 32.95 87.3327 32.95C86.8927 32.95 86.6727 32.73 86.6727 32.29C86.6727 31.85 86.8927 31.63 87.3327 31.63C87.7727 31.63 87.9927 31.85 87.9927 32.29ZM80.5677 26.62C80.5677 27.15 80.3027 27.415 79.7727 27.415C79.2427 27.415 78.9777 27.15 78.9777 26.62C78.9777 26.09 79.2427 25.825 79.7727 25.825C80.3027 25.825 80.5677 26.09 80.5677 26.62ZM82.4127 28.51C82.4127 29.01 82.1627 29.26 81.6627 29.26C81.1627 29.26 80.9127 29.01 80.9127 28.51C80.9127 28.01 81.1627 27.76 81.6627 27.76C82.1627 27.76 82.4127 28.01 82.4127 28.51ZM82.3677 30.4C82.3677 30.87 82.1327 31.105 81.6627 31.105C81.1927 31.105 80.9577 30.87 80.9577 30.4C80.9577 29.93 81.1927 29.695 81.6627 29.695C82.1327 29.695 82.3677 29.93 82.3677 30.4ZM86.0577 34.18C86.0577 34.6 85.8527 34.81 85.4427 34.81C85.0327 34.81 84.8277 34.6 84.8277 34.18C84.8277 33.77 85.0327 33.565 85.4427 33.565C85.8527 33.565 86.0577 33.77 86.0577 34.18ZM84.1677 34.18C84.1677 34.6 83.9627 34.81 83.5527 34.81C83.1427 34.81 82.9377 34.6 82.9377 34.18C82.9377 33.77 83.1427 33.565 83.5527 33.565C83.9627 33.565 84.1677 33.77 84.1677 34.18ZM82.3227 32.29C82.3227 32.73 82.1027 32.95 81.6627 32.95C81.2227 32.95 81.0027 32.73 81.0027 32.29C81.0027 31.85 81.2227 31.63 81.6627 31.63C82.1027 31.63 82.3227 31.85 82.3227 32.29ZM98.9236 26.62C98.9236 27.15 98.6586 27.415 98.1286 27.415C97.5986 27.415 97.3336 27.15 97.3336 26.62C97.3336 26.09 97.5986 25.825 98.1286 25.825C98.6586 25.825 98.9236 26.09 98.9236 26.62ZM98.8786 28.51C98.8786 29.01 98.6286 29.26 98.1286 29.26C97.6286 29.26 97.3786 29.01 97.3786 28.51C97.3786 28.01 97.6286 27.76 98.1286 27.76C98.6286 27.76 98.8786 28.01 98.8786 28.51ZM98.8336 30.4C98.8336 30.87 98.5986 31.105 98.1286 31.105C97.6586 31.105 97.4236 30.87 97.4236 30.4C97.4236 29.93 97.6586 29.695 98.1286 29.695C98.5986 29.695 98.8336 29.93 98.8336 30.4ZM98.7886 32.29C98.7886 32.73 98.5686 32.95 98.1286 32.95C97.6886 32.95 97.4686 32.73 97.4686 32.29C97.4686 31.85 97.6886 31.63 98.1286 31.63C98.5686 31.63 98.7886 31.85 98.7886 32.29ZM91.3636 26.62C91.3636 27.15 91.0986 27.415 90.5686 27.415C90.0386 27.415 89.7736 27.15 89.7736 26.62C89.7736 26.09 90.0386 25.825 90.5686 25.825C91.0986 25.825 91.3636 26.09 91.3636 26.62ZM98.7436 34.18C98.7436 34.6 98.5386 34.81 98.1286 34.81C97.7186 34.81 97.5136 34.6 97.5136 34.18C97.5136 33.77 97.7186 33.565 98.1286 33.565C98.5386 33.565 98.7436 33.77 98.7436 34.18ZM91.3186 28.51C91.3186 29.01 91.0686 29.26 90.5686 29.26C90.0686 29.26 89.8186 29.01 89.8186 28.51C89.8186 28.01 90.0686 27.76 90.5686 27.76C91.0686 27.76 91.3186 28.01 91.3186 28.51ZM96.8536 34.18C96.8536 34.6 96.6486 34.81 96.2386 34.81C95.8286 34.81 95.6236 34.6 95.6236 34.18C95.6236 33.77 95.8286 33.565 96.2386 33.565C96.6486 33.565 96.8536 33.77 96.8536 34.18ZM91.2736 30.4C91.2736 30.87 91.0386 31.105 90.5686 31.105C90.0986 31.105 89.8636 30.87 89.8636 30.4C89.8636 29.93 90.0986 29.695 90.5686 29.695C91.0386 29.695 91.2736 29.93 91.2736 30.4ZM94.9636 34.18C94.9636 34.6 94.7586 34.81 94.3486 34.81C93.9386 34.81 93.7336 34.6 93.7336 34.18C93.7336 33.77 93.9386 33.565 94.3486 33.565C94.7586 33.565 94.9636 33.77 94.9636 34.18ZM91.2286 32.29C91.2286 32.73 91.0086 32.95 90.5686 32.95C90.1286 32.95 89.9086 32.73 89.9086 32.29C89.9086 31.85 90.1286 31.63 90.5686 31.63C91.0086 31.63 91.2286 31.85 91.2286 32.29ZM93.0736 34.18C93.0736 34.6 92.8686 34.81 92.4586 34.81C92.0486 34.81 91.8436 34.6 91.8436 34.18C91.8436 33.77 92.0486 33.565 92.4586 33.565C92.8686 33.565 93.0736 33.77 93.0736 34.18ZM98.6986 36.07C98.6986 36.46 98.5086 36.655 98.1286 36.655C97.7486 36.655 97.5586 36.46 97.5586 36.07C97.5586 35.69 97.7486 35.5 98.1286 35.5C98.5086 35.5 98.6986 35.69 98.6986 36.07ZM96.7636 37.96C96.7636 38.32 96.5886 38.5 96.2386 38.5C95.8886 38.5 95.7136 38.32 95.7136 37.96C95.7136 37.61 95.8886 37.435 96.2386 37.435C96.5886 37.435 96.7636 37.61 96.7636 37.96ZM94.8736 37.96C94.8736 38.32 94.6986 38.5 94.3486 38.5C93.9986 38.5 93.8236 38.32 93.8236 37.96C93.8236 37.61 93.9986 37.435 94.3486 37.435C94.6986 37.435 94.8736 37.61 94.8736 37.96ZM92.9836 37.96C92.9836 38.32 92.8086 38.5 92.4586 38.5C92.1086 38.5 91.9336 38.32 91.9336 37.96C91.9336 37.61 92.1086 37.435 92.4586 37.435C92.8086 37.435 92.9836 37.61 92.9836 37.96Z" fill="white"/>
<defs>
<clipPath id="clip0_311_616">
<rect width="38" height="44" fill="white" transform="matrix(-1 0 0 1 38.5 0)"/>
</clipPath>
</defs>
</svg>
