<?xml version="1.0" encoding="UTF-8" standalone="no"?><svg width="703" height="211" viewBox="0 0 703 211" fill="none" xmlns="http://www.w3.org/2000/svg">
<path d="M679.96 47.68L695.69 53.38L679.96 59.08L674.26 74.82L668.56 59.08L652.83 53.38L668.56 47.68L674.26 31.95L679.96 47.68ZM692.22 31.89L694.9 24.49L702.29 21.81L694.9 19.13L692.22 11.74L689.54 19.13L682.15 21.81L689.54 24.49L692.22 31.89ZM649.56 29.38L653.34 18.96L663.75 15.18L653.34 11.4L649.56 0.990005L645.78 11.4L635.37 15.18L645.78 18.96L649.56 29.38Z" fill="white"/>
<path d="M63.7144 114.438C57.3994 114.438 51.4633 116.838 46.9165 121.132C39.97 114.564 29.866 112.67 20.8987 116.206V114.438H5.74274V170.01H20.8987V138.814C20.8987 133.762 25.0666 129.72 30.1186 129.72C35.1706 129.72 39.2122 133.762 39.2122 138.814V170.136H54.4945V138.814C54.4945 133.762 58.6624 129.72 63.7144 129.72C68.7664 129.72 72.808 133.762 72.808 138.814V170.136H88.0903V138.814C88.0903 125.426 77.1022 114.438 63.7144 114.438ZM140.242 114.438V117.469C128.496 111.533 114.351 114.691 106.015 124.795C97.8056 135.025 97.8056 149.549 106.015 159.78C114.351 169.884 128.496 173.041 140.242 167.105V170.01H155.525V114.438H140.242ZM127.739 154.854C120.792 154.854 115.235 149.171 115.235 142.224C115.235 135.404 120.792 129.72 127.739 129.72C134.559 129.72 140.242 135.404 140.242 142.224C140.242 149.171 134.559 154.728 127.739 154.854ZM222.497 114.438C218.582 114.438 214.667 116.08 211.888 118.859C211.635 119.111 211.383 119.364 211.13 119.616C200.016 111.659 184.481 113.049 175.008 123.026C165.41 133.004 164.652 148.413 173.114 159.275C167.683 164.2 165.789 172.031 168.441 178.851C171.093 185.671 177.661 190.218 184.86 190.218H205.194C206.457 190.218 207.594 191.228 207.594 192.618C207.594 193.881 206.457 195.017 205.194 195.017H187.386V210.3H205.194C214.919 210.3 222.876 202.343 222.876 192.618C222.876 182.766 214.919 174.936 205.194 174.936H184.986C183.597 174.936 182.46 173.799 182.46 172.536C182.46 171.147 183.597 170.01 184.986 170.01H195.09C202.416 170.136 209.488 167.105 214.667 161.927C219.845 156.749 222.876 149.676 222.876 142.224V129.72H230.075V114.438H222.497ZM195.09 129.72C200.142 129.72 204.689 132.752 206.583 137.551C208.478 142.224 207.468 147.529 203.931 151.191C200.268 154.728 194.964 155.738 190.291 153.844C185.618 151.949 182.46 147.402 182.46 142.224C182.586 135.404 188.144 129.72 195.09 129.72ZM257.118 170.01V114.564H241.962V170.01H257.118ZM257.118 98.1453V81.9789H241.962V98.1453H257.118ZM309.365 114.438V117.469C297.619 111.533 283.473 114.564 275.138 124.795C266.928 135.025 266.928 149.549 275.138 159.653C283.473 169.884 297.619 172.915 309.365 167.105V202.848H324.647V114.438H309.365ZM296.861 154.728C291.809 154.728 287.136 151.697 285.242 147.023C283.347 142.35 284.358 136.919 288.02 133.383C291.557 129.847 296.988 128.71 301.661 130.731C306.334 132.625 309.365 137.172 309.365 142.224C309.365 149.171 303.681 154.728 296.861 154.728ZM443.985 114.438V145.634C443.985 148.918 442.343 151.949 439.438 153.591C436.66 155.359 433.123 155.359 430.218 153.591C427.44 151.949 425.672 148.918 425.672 145.634V114.438H410.389V145.634C410.389 150.686 406.348 154.854 401.296 154.854C396.244 154.854 392.076 150.686 392.076 145.634V114.438H376.92V145.634C376.793 155.359 382.603 164.2 391.571 168.116C400.538 171.905 411.021 170.136 418.094 163.316C425.166 170.136 435.523 171.905 444.49 168.116C453.458 164.2 459.267 155.359 459.267 145.634V114.438H443.985ZM511.419 114.438V117.469C499.673 111.533 485.528 114.691 477.192 124.795C468.983 135.025 468.983 149.549 477.192 159.78C485.528 169.884 499.673 173.041 511.419 167.105V170.01H526.702V114.438H511.419ZM498.916 154.854C491.969 154.854 486.412 149.171 486.412 142.224C486.412 135.404 491.969 129.72 498.916 129.72C505.736 129.72 511.419 135.404 511.419 142.224C511.419 149.171 505.736 154.728 498.916 154.854ZM564.12 114.438C560.962 114.438 557.805 115.07 554.9 116.206V114.438H539.744V170.136H554.9V138.814C554.9 133.762 559.068 129.72 564.12 129.72C569.172 129.72 573.214 133.762 573.214 138.814V170.136H588.496V138.814C588.496 125.426 577.634 114.438 564.12 114.438ZM640.695 81.7263V117.469C628.949 111.533 614.804 114.691 606.468 124.795C598.258 135.025 598.258 149.549 606.468 159.78C614.804 169.884 628.949 173.041 640.695 167.105V170.01H655.978V81.7263H640.695ZM628.192 154.854C621.245 154.854 615.688 149.171 615.688 142.224C615.688 135.404 621.245 129.72 628.192 129.72C635.012 129.72 640.695 135.404 640.695 142.224C640.695 149.171 635.012 154.728 628.192 154.854Z" fill="white"/>
</svg>
