<?xml version="1.0" encoding="UTF-8" standalone="no"?><svg width="45" height="45" viewBox="0 0 45 45" fill="none" xmlns="http://www.w3.org/2000/svg">
<path d="M31.51 14.6173C29.8525 13.8698 28.0759 13.3174 26.218 13.0032C26.2015 13 26.1844 13.0021 26.169 13.0091C26.1537 13.016 26.1409 13.0276 26.1325 13.0422C25.905 13.4419 25.6515 13.963 25.4738 14.3747C23.5034 14.0803 21.5002 14.0803 19.5297 14.3747C19.3318 13.9184 19.1087 13.4736 18.8613 13.0422C18.8529 13.0274 18.8403 13.0156 18.825 13.0082C18.8097 13.0009 18.7925 12.9984 18.7758 13.001C16.919 13.3152 15.1424 13.8677 13.4838 14.6162C13.4696 14.6222 13.4575 14.6324 13.4492 14.6455C10.0779 19.6016 9.15386 24.4353 9.60777 29.2083C9.60903 29.22 9.61266 29.2313 9.61843 29.2416C9.62421 29.2518 9.632 29.2608 9.64135 29.2679C11.6091 30.7005 13.8038 31.7918 16.1336 32.4961C16.1498 32.5011 16.1672 32.5011 16.1834 32.4961C16.1997 32.4911 16.214 32.4813 16.2246 32.468C16.7259 31.7975 17.1702 31.0861 17.5527 30.3414C17.558 30.3313 17.5611 30.3201 17.5617 30.3086C17.5623 30.2971 17.5604 30.2857 17.5562 30.275C17.552 30.2643 17.5455 30.2546 17.5373 30.2467C17.529 30.2387 17.5191 30.2326 17.5083 30.2288C16.8085 29.9652 16.1304 29.6472 15.4803 29.2776C15.4687 29.271 15.4588 29.2615 15.4517 29.2501C15.4446 29.2387 15.4404 29.2257 15.4395 29.2123C15.4387 29.1988 15.4412 29.1854 15.4468 29.1732C15.4524 29.161 15.4609 29.1503 15.4717 29.1422C15.6082 29.0415 15.7447 28.9364 15.8747 28.8313C15.8864 28.8219 15.9005 28.8159 15.9154 28.8139C15.9303 28.812 15.9455 28.8143 15.9592 28.8205C20.2133 30.7314 24.8206 30.7314 29.0249 28.8205C29.0386 28.8139 29.0539 28.8114 29.0691 28.8131C29.0842 28.8148 29.0985 28.8208 29.1105 28.8302C29.2404 28.9364 29.3759 29.0415 29.5134 29.1422C29.5243 29.1502 29.533 29.1607 29.5388 29.1728C29.5446 29.1849 29.5472 29.1983 29.5466 29.2117C29.546 29.2251 29.542 29.2381 29.5351 29.2497C29.5282 29.2612 29.5185 29.2708 29.5069 29.2776C28.8591 29.6503 28.1853 29.9655 27.4779 30.2277C27.4671 30.2316 27.4572 30.2379 27.4489 30.2459C27.4406 30.254 27.4342 30.2638 27.43 30.2745C27.4258 30.2853 27.4239 30.2968 27.4245 30.3084C27.4251 30.3199 27.4282 30.3312 27.4335 30.3414C27.8235 31.0857 28.2698 31.7942 28.7605 32.4669C28.7708 32.4807 28.785 32.491 28.8012 32.4964C28.8175 32.5019 28.8351 32.5021 28.8515 32.4972C31.1854 31.7948 33.3836 30.703 35.3535 29.2679C35.3631 29.2612 35.3712 29.2525 35.3772 29.2424C35.3832 29.2323 35.3869 29.2211 35.3882 29.2094C35.9298 23.6911 34.4804 18.8964 31.5436 14.6476C31.5364 14.6338 31.5244 14.6231 31.51 14.6173ZM18.1886 26.3018C16.9081 26.3018 15.8519 25.1438 15.8519 23.7236C15.8519 22.3023 16.8876 21.1453 18.1886 21.1453C19.4994 21.1453 20.5459 22.312 20.5253 23.7236C20.5253 25.1448 19.4896 26.3018 18.1886 26.3018ZM26.8279 26.3018C25.5464 26.3018 24.4913 25.1438 24.4913 23.7236C24.4913 22.3023 25.5258 21.1453 26.8279 21.1453C28.1387 21.1453 29.1852 22.312 29.1646 23.7236C29.1646 25.1448 28.1398 26.3018 26.8279 26.3018Z" fill="white"/>
</svg>
