<?xml version="1.0" encoding="UTF-8" standalone="no"?><svg width="45" height="45" viewBox="0 0 45 45" fill="none" xmlns="http://www.w3.org/2000/svg">
<path d="M13.0836 16.2432C13.0995 16.0849 13.0782 15.9252 13.0213 15.7766C12.9644 15.6281 12.8736 15.4949 12.756 15.3878L10.3276 12.4407V12H17.865L23.6916 24.8765L28.8136 12H36V12.4407L33.9239 14.444C33.8359 14.5119 33.768 14.6025 33.7275 14.706C33.687 14.8094 33.6753 14.922 33.6938 15.0316V29.7658C33.6753 29.8754 33.687 29.988 33.7275 30.0914C33.768 30.1949 33.8359 30.2855 33.9239 30.3534L35.9519 32.358V32.8H25.7547V32.3593L27.8555 30.3053C28.0622 30.0973 28.0622 30.0362 28.0622 29.719V17.8084L22.2226 32.7506H21.4348L14.6358 17.8084V27.8236C14.5799 28.2435 14.719 28.6686 15.0128 28.9728L17.7441 32.3112V32.7506H10V32.3112L12.73 28.9728C12.8744 28.8221 12.9816 28.6397 13.043 28.4401C13.1044 28.2406 13.1183 28.0295 13.0836 27.8236V16.2432Z" fill="white"/>
</svg>
