<?xml version="1.0" encoding="UTF-8" standalone="no"?><svg width="101" height="100" viewBox="0 0 101 100" fill="none" xmlns="http://www.w3.org/2000/svg">
<g clip-path="url(#clip0_534_1240)">
<path d="M44.25 87.5C44.25 87.5 38 87.5 38 81.25C38 75 44.25 56.25 69.25 56.25C94.25 56.25 100.5 75 100.5 81.25C100.5 87.5 94.25 87.5 94.25 87.5H44.25ZM69.25 50C74.2228 50 78.9919 48.0246 82.5083 44.5083C86.0246 40.9919 88 36.2228 88 31.25C88 26.2772 86.0246 21.5081 82.5083 17.9917C78.9919 14.4754 74.2228 12.5 69.25 12.5C64.2772 12.5 59.5081 14.4754 55.9917 17.9917C52.4754 21.5081 50.5 26.2772 50.5 31.25C50.5 36.2228 52.4754 40.9919 55.9917 44.5083C59.5081 48.0246 64.2772 50 69.25 50V50Z" fill="white"/>
<path fill-rule="evenodd" clip-rule="evenodd" d="M33.1 87.5C32.1735 85.5488 31.7114 83.4096 31.75 81.25C31.75 72.7812 36 64.0625 43.85 58C39.9318 56.7927 35.8497 56.2023 31.75 56.25C6.75 56.25 0.5 75 0.5 81.25C0.5 87.5 6.75 87.5 6.75 87.5H33.1Z" fill="white"/>
<path d="M28.625 50C32.769 50 36.7433 48.3538 39.6735 45.4235C42.6038 42.4933 44.25 38.519 44.25 34.375C44.25 30.231 42.6038 26.2567 39.6735 23.3265C36.7433 20.3962 32.769 18.75 28.625 18.75C24.481 18.75 20.5067 20.3962 17.5765 23.3265C14.6462 26.2567 13 30.231 13 34.375C13 38.519 14.6462 42.4933 17.5765 45.4235C20.5067 48.3538 24.481 50 28.625 50V50Z" fill="white"/>
</g>
<defs>
<clipPath id="clip0_534_1240">
<rect width="100" height="100" fill="white" transform="translate(0.5)"/>
</clipPath>
</defs>
</svg>
