<?xml version="1.0" encoding="UTF-8" standalone="no"?><svg width="100" height="100" viewBox="0 0 100 100" fill="none" xmlns="http://www.w3.org/2000/svg">
<g clip-path="url(#clip0_538_1656)">
<path d="M99.903 84.325C98.6499 76.2875 83.7687 82.4719 82.8437 73.6656C81.5405 61.1656 100.128 34.2438 98.6655 23.7781C97.3624 14.3875 90.9999 12.4031 85.4812 12.2875C80.1218 12.2094 78.7093 13.0531 76.903 14.1125C75.8436 14.7125 74.3499 15.9156 72.2655 13.9344C70.8812 12.6125 69.9374 11.7063 68.4905 10.5313C67.7405 9.93127 66.553 9.18127 64.5499 8.89064C62.5843 8.58127 59.978 8.89064 58.3499 9.57502C56.6874 10.2906 55.4218 11.5281 54.0718 12.7C52.7186 13.8719 49.2843 17.6969 46.1093 16.2781C44.7093 15.6781 40.0218 13.3313 36.6374 11.8875C30.1249 9.07189 20.7218 13.6281 17.3155 19.6656C12.2687 28.6156 2.32803 63.8375 0.793651 68.4781C-2.57197 78.8938 5.10927 87.3906 15.428 86.9C19.8062 86.6906 22.7186 85.1125 25.4686 80.0844C27.0655 77.1844 42.0562 38.0594 43.178 36.1563C43.9937 34.8063 46.6937 33.0156 48.9749 34.1688C51.2718 35.3563 51.7249 37.7969 51.3843 40.0938C50.8124 43.8219 40.2687 67.7156 39.8437 70.4031C39.1593 75.0063 41.3436 77.5438 46.128 77.8063C49.3874 77.9688 52.6562 76.8156 55.228 71.9313C56.678 69.2094 73.3436 35.8156 74.8061 33.5844C76.4343 31.1438 77.7343 30.325 79.4155 30.425C80.6999 30.4875 82.7311 30.8156 82.228 34.6531C81.7249 38.4313 68.3155 62.9125 66.9155 68.9C65.0249 76.9406 69.4187 85.0469 76.678 88.6125C81.303 90.8875 101.55 94.7625 99.9061 84.3281L99.903 84.325Z" fill="white"/>
</g>
<defs>
<clipPath id="clip0_538_1656">
<rect width="100" height="100" fill="white"/>
</clipPath>
</defs>
</svg>
