<?xml version="1.0" encoding="UTF-8" standalone="no"?><svg width="45" height="45" viewBox="0 0 45 45" fill="none" xmlns="http://www.w3.org/2000/svg">
<path fill-rule="evenodd" clip-rule="evenodd" d="M22.5 10C15.3175 10 9.5 15.8175 9.5 23C9.5 28.7525 13.2213 33.6113 18.3888 35.3338C19.0388 35.4475 19.2825 35.0575 19.2825 34.7163C19.2825 34.4075 19.2663 33.3838 19.2663 32.295C16 32.8963 15.155 31.4988 14.895 30.7675C14.7488 30.3938 14.115 29.24 13.5625 28.9313C13.1075 28.6875 12.4575 28.0863 13.5462 28.07C14.57 28.0538 15.3012 29.0125 15.545 29.4025C16.715 31.3688 18.5837 30.8162 19.3313 30.475C19.445 29.63 19.7863 29.0613 20.16 28.7362C17.2675 28.4113 14.245 27.29 14.245 22.3175C14.245 20.9038 14.7488 19.7338 15.5775 18.8238C15.4475 18.4988 14.9925 17.1663 15.7075 15.3788C15.7075 15.3788 16.7962 15.0375 19.2825 16.7113C20.3225 16.4188 21.4275 16.2725 22.5325 16.2725C23.6375 16.2725 24.7425 16.4188 25.7825 16.7113C28.2688 15.0213 29.3575 15.3788 29.3575 15.3788C30.0725 17.1663 29.6175 18.4988 29.4875 18.8238C30.3163 19.7338 30.82 20.8875 30.82 22.3175C30.82 27.3062 27.7812 28.4113 24.8888 28.7362C25.36 29.1425 25.7663 29.9225 25.7663 31.1413C25.7663 32.88 25.75 34.2775 25.75 34.7163C25.75 35.0575 25.9937 35.4638 26.6438 35.3338C29.2244 34.4625 31.4669 32.8038 33.0556 30.5913C34.6443 28.3788 35.4992 25.7238 35.5 23C35.5 15.8175 29.6825 10 22.5 10Z" fill="white"/>
</svg>
