<?xml version="1.0" encoding="UTF-8" standalone="no"?><svg width="45" height="45" viewBox="0 0 45 45" fill="none" xmlns="http://www.w3.org/2000/svg">
<path d="M22.9965 18.6648C20.6094 18.6648 18.6614 20.6129 18.6614 23C18.6614 25.3871 20.6094 27.3352 22.9965 27.3352C25.3836 27.3352 27.3316 25.3871 27.3316 23C27.3316 20.6129 25.3836 18.6648 22.9965 18.6648ZM35.9985 23C35.9985 21.2048 36.0148 19.4258 35.914 17.6339C35.8132 15.5525 35.3384 13.7052 33.8164 12.1832C32.2911 10.6579 30.4472 10.1863 28.3658 10.0855C26.5706 9.98471 24.7917 10.001 22.9998 10.001C21.2046 10.001 19.4257 9.98471 17.6337 10.0855C15.5524 10.1863 13.7052 10.6612 12.1832 12.1832C10.6579 13.7085 10.1863 15.5525 10.0855 17.6339C9.98471 19.4291 10.001 21.208 10.001 23C10.001 24.792 9.98471 26.5742 10.0855 28.3661C10.1863 30.4475 10.6612 32.2948 12.1832 33.8168C13.7084 35.3421 15.5524 35.8137 17.6337 35.9145C19.4289 36.0153 21.2078 35.999 22.9998 35.999C24.7949 35.999 26.5739 36.0153 28.3658 35.9145C30.4472 35.8137 32.2944 35.3388 33.8164 33.8168C35.3416 32.2915 35.8132 30.4475 35.914 28.3661C36.0181 26.5742 35.9985 24.7952 35.9985 23ZM22.9965 29.6703C19.3053 29.6703 16.3264 26.6912 16.3264 23C16.3264 19.3088 19.3053 16.3297 22.9965 16.3297C26.6877 16.3297 29.6666 19.3088 29.6666 23C29.6666 26.6912 26.6877 29.6703 22.9965 29.6703ZM29.9398 17.6144C29.078 17.6144 28.382 16.9184 28.382 16.0566C28.382 15.1947 29.078 14.4988 29.9398 14.4988C30.8016 14.4988 31.4976 15.1947 31.4976 16.0566C31.4978 16.2612 31.4577 16.4639 31.3795 16.653C31.3013 16.8421 31.1866 17.014 31.0419 17.1587C30.8972 17.3034 30.7254 17.4181 30.5363 17.4963C30.3471 17.5745 30.1445 17.6146 29.9398 17.6144Z" fill="white"/>
</svg>
