<?xml version="1.0" encoding="UTF-8" standalone="no"?><svg width="50" height="51" viewBox="0 0 50 51" fill="none" xmlns="http://www.w3.org/2000/svg">
<path d="M4.17511 46.75L6.99178 36.193C5.13581 32.9478 4.16073 29.257 4.16678 25.5C4.16678 13.7636 13.4939 4.25 25.0001 4.25C36.5064 4.25 45.8334 13.7636 45.8334 25.5C45.8334 37.2364 36.5064 46.75 25.0001 46.75C21.3184 46.7561 17.7015 45.7622 14.5209 43.8706L4.17511 46.75ZM17.4814 15.5295C17.2123 15.5465 16.9494 15.6188 16.7084 15.742C16.4824 15.8725 16.2761 16.0357 16.0959 16.2265C15.8459 16.4666 15.7043 16.6749 15.5522 16.8767C14.7822 17.8989 14.368 19.1535 14.3751 20.4425C14.3793 21.4837 14.6459 22.4974 15.0626 23.4451C15.9147 25.3619 17.3168 27.3912 19.1689 29.2719C19.6147 29.7245 20.0501 30.1793 20.5189 30.6021C22.8176 32.6665 25.5569 34.1552 28.5189 34.9499L29.7043 35.1348C30.0897 35.156 30.4751 35.1262 30.8626 35.1071C31.4694 35.0752 32.0618 34.9076 32.598 34.6163C32.8708 34.4729 33.1371 34.3169 33.3959 34.1487C33.3959 34.1487 33.4855 34.0892 33.6564 33.9575C33.9376 33.745 34.1105 33.5941 34.3439 33.3455C34.5168 33.1628 34.6668 32.9481 34.7814 32.7038C34.9439 32.3574 35.1064 31.6965 35.173 31.1461C35.223 30.7254 35.2084 30.4959 35.2022 30.3535C35.1939 30.1261 35.0084 29.8903 34.8064 29.7904L33.5939 29.2358C33.5939 29.2358 31.7814 28.4304 30.6751 27.9161C30.5585 27.8643 30.4335 27.8347 30.3064 27.829C30.1638 27.8141 30.0198 27.8304 29.884 27.877C29.7481 27.9235 29.6236 27.9992 29.5189 28.0989V28.0946C29.5084 28.0946 29.3689 28.2158 27.8626 30.0773C27.7762 30.1957 27.6571 30.2853 27.5205 30.3345C27.384 30.3837 27.2362 30.3903 27.0959 30.3535C26.9602 30.3165 26.8272 30.2696 26.698 30.2133C26.4397 30.1028 26.3501 30.0603 26.173 29.9816L26.1626 29.9774C24.9708 29.4466 23.8672 28.7297 22.8918 27.8524C22.6293 27.6186 22.3855 27.3636 22.1355 27.1171C21.3159 26.3165 20.6016 25.4108 20.0105 24.4226L19.8876 24.2207C19.7993 24.0851 19.7279 23.9388 19.6751 23.7851C19.5959 23.4727 19.8022 23.222 19.8022 23.222C19.8022 23.222 20.3084 22.6567 20.5439 22.3507C20.7399 22.0964 20.9228 21.8319 21.0918 21.5581C21.3376 21.1544 21.4147 20.74 21.2855 20.4191C20.7022 18.9656 20.098 17.5185 19.4772 16.082C19.3543 15.7972 18.9897 15.5932 18.6584 15.5529C18.5459 15.5401 18.4334 15.5274 18.3209 15.5189C18.0412 15.5047 17.7608 15.5097 17.4814 15.5295Z" fill="white"/>
</svg>
